<svg xmlns="http://www.w3.org/2000/svg" width="18" height="18" viewBox="0 0 18 18">
  <defs>
    <style>
      .cls-1 {
        fill: #fff;
        fill-rule: evenodd;
      }
    </style>
  </defs>
  <path id="agenda.svg" class="cls-1" d="M1387.5,45.93a0.409,0.409,0,0,0-.42-0.408h-1.45a0.416,0.416,0,0,0-.42.408v1.425a0.415,0.415,0,0,0,.42.409h1.45a0.409,0.409,0,0,0,.42-0.409V45.93h0Zm3.65,0a0.416,0.416,0,0,0-.42-0.408h-1.46a0.416,0.416,0,0,0-.42.408v1.425a0.415,0.415,0,0,0,.42.409h1.46a0.415,0.415,0,0,0,.42-0.409V45.93Zm3.64,0a0.416,0.416,0,0,0-.42-0.408h-1.45a0.409,0.409,0,0,0-.42.408v1.425a0.409,0.409,0,0,0,.42.409h1.45a0.415,0.415,0,0,0,.42-0.409V45.93Zm-7.29,3.563a0.409,0.409,0,0,0-.42-0.409h-1.45a0.416,0.416,0,0,0-.42.409v1.425a0.416,0.416,0,0,0,.42.408h1.45a0.409,0.409,0,0,0,.42-0.408V49.494h0Zm3.65,0a0.416,0.416,0,0,0-.42-0.409h-1.46a0.416,0.416,0,0,0-.42.409v1.425a0.416,0.416,0,0,0,.42.408h1.46a0.416,0.416,0,0,0,.42-0.408V49.494Zm3.64,0a0.416,0.416,0,0,0-.42-0.409h-1.45a0.409,0.409,0,0,0-.42.409v1.425a0.409,0.409,0,0,0,.42.408h1.45a0.416,0.416,0,0,0,.42-0.408V49.494h0ZM1397.4,38v2.177a1.8,1.8,0,0,1-1.83,1.777h-1.14a1.812,1.812,0,0,1-1.84-1.777V38h-5.18v2.185a1.812,1.812,0,0,1-1.84,1.777h-1.15a1.8,1.8,0,0,1-1.82-1.777V38a1.636,1.636,0,0,0-1.6,1.612V52.377A1.641,1.641,0,0,0,1382.65,54h14.7a1.642,1.642,0,0,0,1.65-1.623V39.616A1.636,1.636,0,0,0,1397.4,38Zm-0.54,13.578a0.705,0.705,0,0,1-.71.7h-12.33a0.708,0.708,0,0,1-.72-0.7V44.991a0.708,0.708,0,0,1,.72-0.7h12.33a0.705,0.705,0,0,1,.71.7v6.591h0Zm-12.44-10.791h1.14a0.617,0.617,0,0,0,.62-0.611v-3.57a0.617,0.617,0,0,0-.62-0.611h-1.14a0.617,0.617,0,0,0-.62.611v3.57A0.617,0.617,0,0,0,1384.42,40.791Zm9.99,0h1.14a0.617,0.617,0,0,0,.62-0.611v-3.57a0.617,0.617,0,0,0-.62-0.611h-1.14a0.617,0.617,0,0,0-.62.611v3.57A0.617,0.617,0,0,0,1394.41,40.791Z" transform="translate(-1381 -36)"/>
</svg>
