<svg xmlns="http://www.w3.org/2000/svg" width="11" height="12.969" viewBox="0 0 11 12.969">
  <defs>
    <style>
      .cls-1 {
        fill: #fff;
        fill-rule: evenodd;
      }
    </style>
  </defs>
  <path id="seta-branca.svg" class="cls-1" d="M590.87,653.829a0.444,0.444,0,0,0,.1-0.148V653.67a0.468,0.468,0,0,0,0-.34v-0.01a0.448,0.448,0,0,0-.1-0.149l-6.148-6.036a0.47,0.47,0,0,0-.659,0,0.448,0.448,0,0,0,0,.647l5.349,5.273h-8.947a0.456,0.456,0,1,0,0,.912h8.957l-5.359,5.251a0.448,0.448,0,0,0,0,.647,0.47,0.47,0,0,0,.659,0Z" transform="translate(-580 -647.031)"/>
</svg>
