<svg id="telefone.svg" xmlns="http://www.w3.org/2000/svg" width="41.13" height="41.219" viewBox="0 0 41.13 41.219">
  <defs>
    <style>
      .cls-1 {
        fill: #1e6ca9;
      }

      .cls-1, .cls-2 {
        fill-rule: evenodd;
      }

      .cls-2 {
        fill: #fff;
      }
    </style>
  </defs>
  <path id="phone.svg" class="cls-1" d="M1278.56,660.346a20.6,20.6,0,1,0,20.55,20.6,20.58,20.58,0,0,0-20.55-20.6h0Z" transform="translate(-1258 -660.344)"/>
  <path id="Forma_1_copy" data-name="Forma 1 copy" class="cls-2" d="M1291.36,687.84l-0.11-.352a3.27,3.27,0,0,0-1.99-1.882l-3.04-.833a2.975,2.975,0,0,0-2.6.685l-1.1,1.1a11.7,11.7,0,0,1-8.21-8.229l1.1-1.1a2.949,2.949,0,0,0,.68-2.608l-0.83-3.046a3.253,3.253,0,0,0-1.87-1.992l-0.35-.116a2.742,2.742,0,0,0-2.57.609l-1.65,1.65a3.119,3.119,0,0,0-.48,1.132,19.442,19.442,0,0,0,19.59,19.681,2.993,2.993,0,0,0,1.18-.478l1.65-1.65A2.763,2.763,0,0,0,1291.36,687.84Z" transform="translate(-1258 -660.344)"/>
</svg>
